<?xml version="1.0" standalone="no"?>
<!DOCTYPE svg PUBLIC "-//W3C//DTD SVG 20010904//EN"
 "http://www.w3.org/TR/2001/REC-SVG-20010904/DTD/svg10.dtd">
<svg version="1.0" xmlns="http://www.w3.org/2000/svg"
 width="846.000000pt" height="755.000000pt" viewBox="0 0 846.000000 755.000000"
 preserveAspectRatio="xMidYMid meet">

<g transform="translate(0.000000,755.000000) scale(0.100000,-0.100000)"
fill="#fff" stroke="none">
<path d="M3917 7077 l-287 -192 6 -65 c10 -110 44 -331 65 -419 11 -46 18 -86
15 -88 -2 -2 -46 -8 -97 -14 -748 -76 -1478 -313 -2103 -681 l-119 -71 7 -216
c15 -492 71 -966 167 -1415 182 -855 519 -1630 969 -2231 317 -422 718 -801
1155 -1092 175 -116 470 -283 501 -283 25 0 242 116 392 209 710 441 1301
1078 1651 1780 82 164 134 281 134 301 0 8 20 64 44 123 271 665 405 1381 443
2357 5 140 10 303 10 362 l0 107 -118 70 c-578 340 -1215 558 -1947 664 -70
10 -89 16 -86 27 21 86 63 320 76 428 14 112 15 137 3 147 -31 30 -567 385
-580 384 -7 0 -142 -87 -301 -192z m-12 -1168 c17 -23 45 -53 63 -66 32 -26
45 -60 17 -50 -16 7 -205 147 -205 153 0 2 21 4 48 4 43 0 49 -4 77 -41z m745
22 c0 -10 -169 -138 -195 -147 -34 -14 -11 31 48 91 57 59 66 64 105 65 23 0
42 -4 42 -9z m-1271 -50 c-8 -10 -35 -47 -61 -82 -141 -194 -220 -444 -201
-643 l6 -63 447 -259 c247 -143 447 -260 445 -262 -2 -2 -231 89 -509 202
-278 113 -510 206 -516 206 -7 0 -9 -123 -8 -377 l3 -377 282 -155 c156 -85
281 -156 279 -158 -2 -2 -70 4 -150 13 -80 9 -148 15 -150 13 -5 -5 -186 -791
-186 -806 0 -9 686 -572 728 -597 9 -6 12 139 12 711 l0 718 -244 190 c-242
189 -243 190 -250 234 -9 65 -7 171 3 171 5 0 173 -74 373 -165 l363 -164 0
-218 c0 -200 -2 -222 -21 -268 l-21 -50 86 -110 c47 -61 96 -124 109 -140 20
-25 25 -27 33 -14 7 14 54 73 175 224 l32 40 -24 58 c-24 55 -24 64 -22 269
l3 211 370 168 c204 92 373 168 378 168 9 1 8 -188 -1 -211 -4 -9 -115 -101
-247 -205 l-240 -189 -3 -712 c-1 -392 0 -712 4 -712 5 0 679 544 713 575 11
11 -2 78 -79 416 -51 222 -94 405 -95 407 -2 2 -74 -5 -161 -16 -88 -11 -160
-18 -161 -17 -2 1 129 74 290 162 l292 160 3 377 c1 207 0 376 -3 376 -3 0
-125 -49 -272 -109 -586 -239 -766 -311 -770 -307 -5 5 -23 -6 510 301 l399
230 -5 150 c-5 160 -14 200 -75 343 -27 62 -93 171 -158 260 -21 28 -20 28
139 -8 410 -95 874 -274 1210 -467 l77 -45 0 -131 c0 -415 -56 -1001 -131
-1387 -89 -453 -248 -945 -374 -1154 -60 -100 -208 -278 -340 -411 -139 -139
-369 -339 -385 -333 -5 2 19 36 55 76 219 246 508 641 576 786 51 110 51 110
-38 199 l-79 78 -55 -68 c-231 -287 -580 -650 -802 -835 -208 -173 -413 -304
-583 -373 -119 -48 -129 -49 -217 -20 -386 126 -963 620 -1451 1243 l-50 63
-83 -83 c-97 -97 -97 -93 -31 -223 71 -142 298 -454 508 -700 52 -61 102 -120
110 -130 14 -19 14 -19 -5 -5 -317 238 -681 645 -819 918 -15 29 -30 51 -35
48 -19 -12 -176 424 -250 696 -146 531 -222 1049 -244 1654 l-3 92 110 60
c441 240 911 407 1411 500 83 16 90 15 74 -7z"/>
</g>
</svg>
