<svg version="1.2" xmlns="http://www.w3.org/2000/svg" viewBox="0 0 731 213" width="731" height="213">
	<title>logo_2-svg</title>
	<style>
		.s0 { fill: #f1db25 } 
	</style>
	<g id="Layer">
		<path id="Layer" fill-rule="evenodd" class="s0" d="m89.5 1.3l8.5 5.4c4.7 3 8.8 5.8 9.2 6.2 0.3 0.3 0 4.4-0.7 9-0.8 4.7-1.2 8.8-1 9.1 0.3 0.4 2.8 1 5.7 1.4 14.1 1.8 37.9 10.1 50.7 17.6l7.4 4.3-0.7 14.6c-1.3 26.3-4.4 45-10.6 62.6-1.8 5-3.2 9.9-3.2 11 0 7.7-17 33.9-29.9 46.1-9.9 9.3-31.2 24-36.1 24.9-4.3 0.9-22.8-11.8-36.3-24.7-12.2-11.6-21.3-23.9-29.1-39.4-12.3-24.3-19-51.1-20.9-84l-0.7-11.2 7.3-4.3c14.4-8.4 41.1-17 57.4-18.5l7.7-0.7-0.5-3.6c-0.4-2-0.9-5.9-1.3-8.7l-0.6-5.2 8.8-5.9zm-12.4 39.7c-1.1 0-0.6 0.8 1.4 2.5 3.9 3.2 5.5 3.2 2.5 0-1.3-1.4-3.1-2.5-3.9-2.5zm24.9 1c-1.5 0.1-6 3.3-6 4.4 0 1.2 1.5 0.5 4.5-1.9 1.8-1.5 2.4-2.5 1.5-2.5zm-40.3 1c-7.1 0.2-34.3 9.5-43.5 14.9l-4.6 2.7 0.3 6.4c0.6 17 3.4 33.8 8.3 50.5 3.9 13.1 6.7 19.5 8.2 18.9 0.7-0.3 1.7 0.6 2.3 1.8 2.3 5 10.3 14.6 17.3 20.8 8 7 8.2 6.6 0.9-2-6.4-7.6-13.9-18.8-13.9-20.9 0-1 1.1-2.7 2.4-4l2.3-2.2 4.3 5.7c6.6 8.4 24.6 25.1 32.1 29.5 11.1 6.6 15.2 6.2 27.3-2.5 7-5.1 21.2-18.6 27.9-26.6l4.6-5.5 2.2 2.1c1.4 1.5 1.9 2.8 1.5 4.2-1.1 3.3-7.9 13.3-14 20.5-3.2 3.7-5.6 7.1-5.3 7.3 0.3 0.3 4.2-2.9 8.7-7.2 9.5-9.1 12.8-15 18.3-31.9 5.5-17 8.7-38.3 8.7-57.1v-8.4l-9.2-4.4c-9.4-4.5-20.7-8.7-28.5-10.4l-4.2-1 3.1 5.5c2.2 3.8 3.2 7.2 3.5 11.7l0.5 6.2-14.3 8.2c-7.9 4.5-13.9 8.2-13.3 8.2 0.5 0 7.7-2.7 15.9-6 8.2-3.3 15-6 15.2-6 0.2 0 0.3 5.1 0.3 11.2v11.3l-8.8 4.8-8.7 4.8 5-0.5 5-0.6 2.3 10.4c1.3 5.7 2.6 11.2 2.8 12.3 0.4 1.5-1.7 3.7-9.3 9.9-5.4 4.4-10.4 8.4-11 8.8-1 0.6-1.3-3.8-1.3-20.6v-21.3l7.5-5.8c6.8-5.3 7.5-6.1 7.5-9.3 0-4.2 0.3-4.3-13.6 2.2l-9.5 4.5 0.2 8.8c0.3 8.6 0.2 9-2.7 12.3l-3 3.4-3-4.1c-2.3-2.9-2.9-4.5-2.3-6 0.4-1.1 0.8-4.7 0.8-8.1l0.1-6.1-8.2-3.8c-4.6-2-9.8-4.4-11.5-5.1l-3.3-1.4v3.4c0 3 0.8 4 7.5 9.1l7.5 5.8v22c0 20.9-0.1 21.9-1.7 20.5-1-0.8-6.1-5-11.3-9.3-6-4.9-9.4-8.4-9.2-9.4 0.2-0.9 1.5-6.5 2.9-12.4l2.5-10.9 4.7 0.6 4.6 0.7-6-3.5c-3.3-1.9-7.2-4.1-8.7-5l-2.8-1.5v-23l15.7 6.5c8.6 3.5 15.7 6.3 15.9 6.1 0.2-0.1-6-3.9-13.7-8.2l-14.1-8 0.6-5.9c0.4-4.1 1.7-7.9 4.1-12.3 3.4-6.1 3.4-6.3 1.2-6.3z"/>
		<path id="Layer" class="s0" d="m244.9 71.4c-6 1.6-13 5.8-16.5 9.8-7.6 9-11.6 25.1-9.6 38.1 2.2 14 8 22.8 18.6 27.8 11.2 5.3 23.3 4.9 32.9-1.3 5.4-3.5 7.2-3.2 8.2 1.1 1.5 6.8 2.5 2.3 2.7-12.2 0.3-14.7 0.4-15.2 2.6-16.2 1.2-0.5 2.2-1.3 2.2-1.7 0-0.5-6.1-0.8-13.5-0.8-8.3 0-13.5 0.4-13.5 1 0 0.5 1.5 1 3.4 1 1.9 0 4.4 0.8 5.7 1.9 2.1 1.7 2.4 2.9 2.7 11.9 0.4 9.9 0.4 10.1-2.3 12.6-5 4.6-13.2 5.8-22.2 3.1-6.5-1.9-12.6-8.5-14.9-15.9-2.1-7-3-25.9-1.5-33.6 2.4-12.1 7.9-20.6 15.6-24.1 11.9-5.4 28.2 2.2 31.4 14.6 0.7 2.8 1.5 5.8 1.8 6.7 0.2 1 0.9 1.8 1.4 1.8 0.5 0 0.9-5.6 0.9-13 0-8-0.4-13-1-13-0.5 0-1 1-1 2.3 0 1.3-0.6 3.1-1.3 4.2-1.3 1.7-1.6 1.6-6.2-1.5-8.3-5.7-16.9-7.2-26.6-4.6z"/>
		<path id="Layer" class="s0" d="m294 72c0 0.5 0.9 1 1.9 1 1 0 2.9 0.9 4.2 1.9 2.4 1.9 2.4 2 2.9 30.3 0.5 27.1 0.6 28.5 2.8 33 7.3 14.7 31.3 17.2 41.9 4.3 5.1-6.1 5.5-8.9 6.2-38.3 0.6-27.2 0.6-27.4 3-29.3 1.3-1 3.2-1.9 4.2-1.9 1 0 1.9-0.5 1.9-1 0-0.6-4.2-1-10.5-1-10.8 0-13.3 0.9-6.8 2.6 6.2 1.5 6.4 2.6 6.1 31.5l-0.3 25.5-3 5.9c-3.9 7.6-8.9 10.5-18 10.5-7.1 0-11.6-2.4-14.7-7.7-2.8-4.7-4-18.8-3.6-42 0.3-20.1 0.3-20.5 2.7-22.4 1.3-1 3.2-1.9 4.2-1.9 1 0 1.9-0.5 1.9-1 0-0.6-5.2-1-13.5-1-8.3 0-13.5 0.4-13.5 1z"/>
		<path id="Layer" fill-rule="evenodd" class="s0" d="m401.8 71.4c0.3 0.4 7 17 14.7 36.9 12.8 32.9 14.4 36.4 17.2 38.2 1.8 1.1 3.2 2.3 3.3 2.7 0 0.5-5.8 0.8-13 0.8-8 0-13-0.4-13-1 0-0.6 0.9-1 2.1-1 3.3 0 5.9-1.9 5.9-4.4 0-1.3-1.8-7-3.9-12.7l-3.9-10.4-13.9-0.3-13.8-0.3-3.3 8.8c-3.4 9.3-4.1 15.3-1.9 17.2 0.8 0.6 2.8 1.4 4.5 1.7 6.3 1.3 3 2.4-6.8 2.4-5.5 0-10-0.3-10-0.6 0-0.4 1.6-2.1 3.5-3.8 3.1-2.7 5.2-7.2 16.6-36.6 7.2-18.4 13.5-34.6 14-35.9 0.5-1.3 1.3-2.1 1.7-1.7zm-3.9 15.2c-0.4-0.5-1.3 0.2-1.8 1.5-3.2 7.4-11.1 28.1-11.1 28.9 0 0.6 5 1 12.6 1 9.7 0 12.5-0.3 12.1-1.3-0.2-0.6-2.8-7.5-5.7-15.2-2.9-7.7-5.6-14.4-6.1-14.9z"/>
		<path id="Layer" fill-rule="evenodd" class="s0" d="m461.3 71.2c18.2 0.3 20.7 0.6 24.7 2.5 5.8 2.8 7.3 4.1 9.9 8.3 2.5 4.2 2.7 10.5 0.6 15.8-2.8 6.4-7.2 10-16 12.8-2.2 0.7-3.1 1.3-2 1.4 1.1 0 3.9 0.9 6.2 1.9 5.3 2.4 7.3 6.3 10.3 19.6 1.2 5.5 2.9 11 3.6 12.2 1.8 2.9 5.5 3 7.9 0.3 1-1.1 2.3-2 2.8-2 1.5 0-2.4 4-5.5 5.6-5.4 2.8-12.5 0.8-15.2-4.4-0.7-1.5-2.4-7.2-3.6-12.7-2.6-11.9-5.1-17.9-7.8-19.4-1.2-0.6-5.5-1.1-9.6-1.1h-7.6v14.9c0 17.7 0.6 19.7 5.5 20.7 7.4 1.4 3 2.4-10.5 2.4-8.7 0-14-0.4-14-1 0-0.6 1-1 2.3-1 1.2 0 3.3-0.7 4.5-1.6l2.2-1.5v-68.8l-2.2-1.5c-1.2-0.9-3.3-1.6-4.5-1.6-1.3 0-2.3-0.5-2.3-1.1 0-0.8 5.9-1 20.3-0.7zm2.4 2.4c-3 0.9-3.7 4.8-3.7 21.1v15.6l8.3-0.5c14-0.7 18.9-5.2 18.9-17.7 0.1-8.3-2.2-13.7-7-16.4-3.2-1.9-13-3.1-16.5-2.1z"/>
		<path id="Layer" fill-rule="evenodd" class="s0" d="m554.1 72c8.8 1.6 17.5 6.5 21.4 11.8 5.1 7.1 7 14 7 25.7 0 19.5-7.4 31.4-23.4 37.6-4.9 2-8 2.3-25.3 2.7-12.7 0.3-19.8 0.1-19.8-0.6 0-0.5 1.6-1.3 3.5-1.6 2.6-0.5 3.9-1.4 4.5-3.2 0.6-1.4 1-16.4 1-33.9 0-17.5-0.4-32.5-1-33.9-0.6-1.8-1.9-2.7-4.5-3.2-1.9-0.3-3.5-1-3.5-1.5 0-1.2 33.5-1.1 40.1 0.1zm-18.8 2.5l-2.3 1.6v68.9l2.5 1.6c2 1.3 4 1.5 8.8 1.2 9.6-0.8 14.7-2.8 19.3-7.3 5.9-5.9 7.6-11.5 8.1-27 0.8-21.5-2.9-31.3-13.8-36.8-7.2-3.6-19.1-4.8-22.6-2.2z"/>
		<path id="Layer" class="s0" d="m594 72c0 0.5 1 1 2.3 1 1.2 0 3.3 0.7 4.5 1.6l2.2 1.5v34.4 34.4l-2.2 1.5c-1.2 0.9-3.3 1.6-4.5 1.6-1.3 0-2.3 0.4-2.3 1 0 0.6 10.2 1 28.5 1h28.5v-11c0-11.1-1.3-14.5-2.5-6.8-2 12.5-6.5 15.8-22 15.8-13.8 0-13.5 0.4-13.5-20.6v-16.6l6.5 0.4c8 0.5 10.3 2.4 11.3 9.3 0.4 2.8 1.3 5 2.1 5.3 1 0.3 1.2-0.1 0.8-1.9-0.4-1.3-0.7-8.6-0.7-16.2 0-13.8-1.2-18-2.4-8.6-1 7.5-3.8 9.9-11.6 9.9h-6v-16c0-20.4-0.3-20 13.8-20 14.7 0 17.7 2.2 19.7 14.2 1.1 7.2 2.5 3.8 2.5-6.2v-10h-27.5c-17.7 0-27.5 0.4-27.5 1z"/>
		<path id="Layer" fill-rule="evenodd" class="s0" d="m682.3 71.2c17.7 0.3 20.7 0.6 24.7 2.4 8.4 3.8 13.2 11.8 11.6 19.5-1.7 8.5-6.7 13.8-15.9 17-2.9 1-4.3 1.8-3.3 1.8 1.1 0.1 3.9 1 6.2 2.2 5.2 2.5 7.2 6.4 10.4 19.9 1.2 5.2 2.9 10.5 3.6 11.7 1.8 2.9 4.8 2.9 7.5 0.2 1.1-1.1 2.4-1.8 2.7-1.4 1.2 1.1-4.6 5.4-8.3 6.1-8.6 1.6-12.2-2.8-16-19.4-4.1-17.7-5.5-19.2-17.5-19.2h-7v16c0 14.7 0.2 16.2 2 18 1.1 1.1 3.1 2 4.5 2 1.4 0 2.5 0.4 2.5 1 0 0.6-5.3 1-14 1-8.7 0-14-0.4-14-1 0-0.6 1-1 2.3-1 1.2 0 3.3-0.7 4.5-1.6l2.2-1.5v-68.8l-2.2-1.5c-1.2-0.9-3.3-1.6-4.5-1.6-1.3 0-2.3-0.5-2.3-1.1 0-0.8 5.9-1 20.3-0.7zm9.3 2.1c-5.5-0.5-6.6-0.3-8.5 1.6-2 2-2.1 3.1-2.1 18.7v16.7l8.3-0.5c14-0.7 18.7-5.4 18.7-18.5 0-8.1-2.1-12.9-6.9-15.7-1.8-1-6-2.1-9.5-2.3z"/>
	</g>
</svg>