<svg version="1.2" xmlns="http://www.w3.org/2000/svg" viewBox="0 0 853 135" width="853" height="135">
	<title>logo_3-svg</title>
	<style>
		.s0 { fill: #ffffff } 
	</style>
	<g id="Layer">
		<path id="Layer" class="s0" d="m49.2 2.5c-13.5 3-25.8 11.6-33.8 23.7-12.3 18.5-15.5 46.7-7.9 70.5 7.5 23.6 27.8 37.3 55.4 37.3 11.4 0 18.6-2.2 28.1-8.5 8.5-5.7 9.8-5.5 11.9 2.4 0.8 2.9 2 5.1 2.7 5.1 1.1 0 1.4-4.2 1.5-22.3 0-25.7 0.6-28.6 5.9-30.3 1.9-0.6 3.6-1.9 3.8-2.8 0.3-1.4-1.9-1.6-22.2-1.6-21.5 0-22.6 0.1-22.6 1.9 0 1.6 1 1.9 6 2.3 4.9 0.4 6.6 0.9 8.8 3.1 2.7 2.7 2.7 2.8 3 19.5 0.4 19.4 0.2 19.8-9 24.5-13.3 6.7-34.1 3.4-44.7-7.2-4.9-4.9-8.4-11.5-11.3-21.8-2-7-2.3-10-2.3-28.8 0-17 0.3-22.2 1.8-27.5 4.3-15.8 13.1-28.6 23.2-33.8 10.8-5.5 28.7-3.7 39.7 4 8.3 5.8 11.8 11.5 14.7 23.6 1.5 6.4 2.1 7.8 3.9 8 2.2 0.3 2.2 0.3 2.2-20.8 0-19.5-0.1-21.1-1.7-20.8-1.2 0.2-2 1.7-2.5 4.5-0.8 4.8-2.4 8.3-3.8 8.3-0.5 0-4.3-2.2-8.4-4.9-4.2-2.7-9.7-5.6-12.3-6.6-6.6-2.3-22.2-2.8-30.1-1z"/>
		<path id="Layer" class="s0" d="m128.2 3.7c0.2 1.3 1.7 2 5.2 2.5 2.9 0.4 5.8 1.5 7 2.8 2 2 2.1 3.2 2.7 46.3 0.8 54.4 1.1 56 12.8 67.8 8.4 8.3 14.1 10.3 30.6 10.3 12.6 0.1 13.2 0 19.7-3.1 10.8-5.1 16.6-12.3 20.5-25.6 1.3-4.2 1.7-13.6 2.2-48.2 0.5-39.2 0.8-43.3 2.4-45.8 2-3.1 5.4-4.7 9.8-4.7 2.2 0 2.9-0.5 2.9-2 0-1.9-0.7-2-18.1-2-16.6 0-18 0.1-17.7 1.7 0.2 1.2 1.8 2 5.3 2.6 5.7 0.9 8.2 2.8 10.1 7.4 2.1 4.9 2 73.6-0.1 83.8-3.9 18.7-11.1 26.7-26.5 29.5-8.1 1.5-15 0.7-21.6-2.5-9-4.4-12.9-12.3-14.4-28.9-1.2-12.7-1.2-75.6-0.1-81.4 1.1-5.8 2.9-7.4 9-8 4.1-0.4 5.1-0.8 5.1-2.3 0-1.8-1.2-1.9-23.6-1.9-21.8 0-23.5 0.1-23.2 1.7z"/>
		<path id="Layer" fill-rule="evenodd" class="s0" d="m313 12.7c2.3 6 7.9 20.5 12.5 32.3 4.6 11.8 10.3 26.7 12.8 33 2.5 6.3 7.3 18.7 10.7 27.5 6.9 17.8 9.4 21.8 14.5 23.5 1.9 0.6 3.5 1.8 3.5 2.6 0 1.2-3.6 1.4-22 1.4-18.2 0-22-0.2-22-1.4 0-0.9 1.7-1.6 4.8-2.1 5.5-0.7 6.5-1.2 8-4.1 1.6-3 0.1-7.9-12.3-39.7-0.7-1.5-2.7-1.7-23-1.7h-22.3l-5 13.2c-5.7 15.1-6.7 19.3-5.8 24.3 0.8 4.3 4.6 7 11.2 8 2.9 0.4 4.4 1.1 4.4 2.1 0 1.2-2.9 1.4-17.5 1.4-14.6 0-17.5-0.2-17.5-1.5 0-0.8 1.6-2.2 3.5-3.1 2-0.9 4.9-3.5 6.4-5.8 1.6-2.2 7.7-16.5 13.6-31.6 21.9-56.2 31-79.7 33.4-86.3 1.9-5 3.8-3.2 8.1 8zm-12.1 15.3c-0.7 0-3.9 6.2-3.9 7.6 0 0.3-3.8 10.1-8.5 22-4.7 11.8-8.5 22-8.5 22.5 0 0.5 8.6 0.9 20.5 0.9 12.3 0 20.5-0.4 20.5-1 0-0.5-3.6-10.5-8.1-22.2-4.4-11.7-8.8-23.2-9.6-25.6-0.8-2.3-1.9-4.2-2.4-4.2z"/>
		<path id="Layer" fill-rule="evenodd" class="s0" d="m405.9 2.2c31.1 0.3 31.7 0.4 38.8 3 10.4 3.7 16.5 8.6 20.2 16 9 17.9-2.3 39.1-24 45.3-6.9 1.9-7 1.7 2.4 5 10.8 3.8 13.9 9.1 19.7 33.4 4.3 18.3 5.8 22.4 8.9 24.1 3.2 1.7 4.9 1.2 9-2.5 6.5-5.9 8.6-4.3 2.4 1.7-4.7 4.6-7.9 5.8-14.9 5.8-7 0-11.5-1.9-14.6-6.1-3.4-4.7-4.2-7.1-8.7-26.4-4.6-20-6.3-24.7-10.3-28-4.1-3.5-9.4-4.6-20-4.3l-9.3 0.3-0.3 22c-0.5 33.6 0.3 36.4 10.1 37.9 3.1 0.5 4.7 1.2 4.7 2.2 0 1.2-3.7 1.4-23.3 1.4-19.6 0-23.4-0.2-23.4-1.4 0-1 1.7-1.7 4.9-2.1 2.6-0.4 5.8-1.5 7.1-2.5l2.2-1.8v-57.1c0-56.9 0-57-2.1-59.2-1.4-1.3-3.9-2.3-6.8-2.6-4.8-0.6-6.2-1.5-5-3.4 0.4-0.7 10.3-1 32.3-0.7zm3.9 5.3c-4.2 2.3-5 8.5-4.6 35l0.3 23 12-0.1c14.1-0.1 20.2-2.1 25.9-8.4 4.7-5.3 6.1-9.9 6.1-21.5 0-9-0.3-10.6-2.8-15.8-3.4-6.7-7.2-9.9-14.6-12.1-6.8-2-18.7-2-22.3-0.1z"/>
		<path id="Layer" fill-rule="evenodd" class="s0" d="m526.3 2.2c32.7 0.4 33.3 0.5 42.2 3.2 10.8 3.3 16.4 6.3 22.8 12.5 12.7 12.1 18.8 33 16.7 56.3-2.1 22.9-12 39.8-28.9 49.8-13.4 7.8-16.4 8.3-53.3 8.8-28.4 0.3-32.8 0.2-32.8-1.1 0-1 1.6-1.7 4.8-2.2 2.6-0.4 5.5-1.1 6.4-1.6 3.6-2 3.9-6.9 3.6-62.6-0.3-54.1-0.3-54.3-2.5-56.4-1.4-1.5-3.8-2.3-7.2-2.7-4.2-0.4-5.1-0.8-5.1-2.4 0-1.9 0.7-2 33.3-1.6zm3.9 4.8c-5.1 2.2-5.2 3.8-5.2 61.2 0 51.1 0.1 53.4 2 56.5 2.6 4.3 8 5.7 18 4.8 14.3-1.3 22.8-4.5 30.4-11.6 9.5-8.6 13.5-21.7 14.4-45.5 1.2-37.3-7.5-56.6-28.8-63.5-7.3-2.4-26.9-3.6-30.8-1.9z"/>
		<path id="Layer" class="s0" d="m627 4c0 1.6 0.7 2 3.5 2 4.2 0 8.9 2.2 10.1 4.7 1 2.1 1.8 102.7 0.9 109.2-0.9 5.7-4 8.7-9.9 9.6-2.9 0.5-4.6 1.2-4.6 2.1 0 1.2 7.7 1.4 47.5 1.4h47.4l-0.4-18.2c-0.4-16.5-0.6-18.3-2.2-18.3-1.4 0-2 1.6-3 8.2-2.2 14-6.7 20.9-15.6 23.5-2.5 0.7-10.4 1.2-19.7 1.3-16.7 0-19.3-0.6-21-5.1-0.6-1.4-1-14.5-1-29.1v-26.5l8.8 0.4c13.3 0.7 18.4 4.5 19.7 14.8 1.1 8.1 1.4 9 3.6 9 1.9 0 2.1-0.4 1.5-3.1-0.3-1.7-0.6-13.4-0.6-26 0-21.9-0.1-22.9-1.9-22.9-1.5 0-2 1-2.6 5.2-1.1 8-4.2 15.4-7.3 17.4-1.9 1.3-5.3 1.9-11.9 2.2l-9.3 0.4v-26.5c0-28.2 0.3-30.6 4.7-32.6 3-1.4 31.5-1.5 36.5-0.1 7 2 10.5 7.8 12.9 21.7 0.9 5.1 1.5 6.3 3 6.3 1.7 0 1.8-1.2 2.1-16.1 0.2-8.8 0.1-16.3-0.1-16.5-0.2-0.2-20.8-0.4-45.8-0.4-44.6 0-45.3 0-45.3 2z"/>
		<path id="Layer" fill-rule="evenodd" class="s0" d="m771.2 2.2c30.6 0.4 32.6 0.5 38.7 2.7 19.4 6.8 27.7 20.7 22.6 37.8-3.3 11-12.4 19.7-24.8 23.5-5.5 1.6-6.7 2.3-5.2 2.9 1.1 0.4 4.2 1.5 6.8 2.4 6 2.1 10.2 5.6 12.8 10.8 1.2 2.2 4.3 12.8 6.9 23.6 4.2 16.9 5.2 19.9 7.6 21.9 3.4 3 6.8 2.3 11.1-2.3 2.4-2.6 3.4-3.1 4.2-2.1 1.2 1.5-3.5 6.4-8.6 9-3.9 2-13.2 2.1-17.6 0.2-7.2-3-9.6-8.1-14.6-30.6-4.4-19.5-5.8-23.5-9.4-27.4-4.2-4.4-9.4-5.7-20.9-5.4l-9.3 0.3-0.3 23c-0.2 12.6 0 25 0.3 27.4 0.9 5.7 4 8.7 9.9 9.6 2.9 0.5 4.6 1.2 4.6 2.1 0 1.2-4.1 1.4-23.5 1.4-19.4 0-23.5-0.2-23.5-1.4 0-0.9 1.7-1.6 4.8-2.1 2.6-0.4 5.5-1.1 6.4-1.6 3.6-2 3.9-6.9 3.6-62.6-0.3-53.5-0.3-54.3-2.4-56.3-1.2-1.3-4.1-2.4-7-2.8-3.6-0.5-5-1.2-5.2-2.5-0.4-1.8 1.1-1.9 32-1.5zm16.4 4c-16.4-0.6-16.7 0.1-16.4 34.7l0.3 24.6 7.5 0.3c22.6 0.9 34.4-7.1 36.5-24.7 1.7-14.9-3.3-26.9-13.3-31.8-4.6-2.2-7.2-2.8-14.6-3.1z"/>
	</g>
</svg>